<?xml version="1.0" encoding="UTF-8" standalone="no"?>
<svg
   width="512px"
   height="512px"
   viewBox="0 0 512 512"
   version="1.1"
   id="svg4"
   sodipodi:docname="yellow-death-star.svg"
   inkscape:version="1.2 (1:1.2+202206011327+fc4e4096c5)"
   xmlns:inkscape="http://www.inkscape.org/namespaces/inkscape"
   xmlns:sodipodi="http://sodipodi.sourceforge.net/DTD/sodipodi-0.dtd"
   xmlns="http://www.w3.org/2000/svg"
   xmlns:svg="http://www.w3.org/2000/svg">
  <defs
     id="defs8" />
  <sodipodi:namedview
     id="namedview6"
     pagecolor="#ffffff"
     bordercolor="#666666"
     borderopacity="1.0"
     inkscape:showpageshadow="2"
     inkscape:pageopacity="0.0"
     inkscape:pagecheckerboard="0"
     inkscape:deskcolor="#d1d1d1"
     showgrid="false"
     inkscape:zoom="1.0859375"
     inkscape:cx="44.661871"
     inkscape:cy="256"
     inkscape:window-width="1366"
     inkscape:window-height="704"
     inkscape:window-x="0"
     inkscape:window-y="0"
     inkscape:window-maximized="1"
     inkscape:current-layer="svg4" />
  <path
     fill="#000"
     d="M256 32C135.1 32 36.06 127.9 32.12 248.7c136.18 13.8 311.58 13.8 447.78 0-.3-10.6-1.4-21.2-3.3-31.7H352v-18h32v-16h32v-16h45.6c-4.5-10.4-9.8-20.4-15.8-30H368v-18h48v-14h-18.7V89H368V73h-48V55h34.9c-30.8-15.14-64.6-23-98.9-23zm-64.3 64h.3c35.3 0 64 28.7 64 64s-28.7 64-64 64-64-28.7-64-64c0-35.2 28.5-63.83 63.7-64zM32.26 266.7C37.97 386.1 136.4 480 256 480c10.6-1.4 16 0 43.8-7v-18h59c8.1-4.2 16-8.9 23.5-14H368v-16h-32v-18h85.4c8.5-9.3 16.3-19.4 23.1-30H432v-16h-80v-18h16v-16h48v-16h32v-16h28.5c1.7-9.4 2.7-18.8 3.2-28.3-136.8 13.7-310.6 13.7-447.44 0z"
     id="path2"
     style="fill:#ffe81f;fill-opacity:1" />
</svg>
