<svg width="26" height="26" viewBox="0 0 26 26" fill="none" xmlns="http://www.w3.org/2000/svg">
<path d="M13 0.52C6.10742 0.52 0.52002 6.1074 0.52002 13C0.52002 19.8926 6.10742 25.48 13 25.48C19.8926 25.48 25.48 19.8926 25.48 13C25.48 6.1074 19.8926 0.52 13 0.52ZM9.94502 18.1727H7.41782V10.0399H9.94502V18.1727ZM8.66582 9.0415C7.86762 9.0415 7.35152 8.476 7.35152 7.7766C7.35152 7.0629 7.88322 6.5143 8.69832 6.5143C9.51342 6.5143 10.0126 7.0629 10.0282 7.7766C10.0282 8.476 9.51342 9.0415 8.66582 9.0415ZM19.175 18.1727H16.6478V13.6656C16.6478 12.6165 16.2812 11.9041 15.3673 11.9041C14.6692 11.9041 14.2545 12.3864 14.0712 12.8505C14.0036 13.0156 13.9867 13.2496 13.9867 13.4823V18.1714H11.4582V12.6334C11.4582 11.6181 11.4257 10.7692 11.3919 10.0386H13.5876L13.7033 11.1683H13.754C14.0868 10.6379 14.9019 9.8553 16.2656 9.8553C17.9283 9.8553 19.175 10.9694 19.175 13.364V18.1727Z" fill="#484848"/>
</svg>
